<svg width="80" height="81" fill="none" xmlns="http://www.w3.org/2000/svg">
    <path fill-rule="evenodd" clip-rule="evenodd" d="M80 9.139V3.956C80 1.813 78.263.07 76.129.07H40c-2.134 0-3.871 1.744-3.871 3.887V9.14c0 1.144.505 2.163 1.29 2.876v21.74H3.871C1.737 33.755 0 35.499 0 37.64v36.277c0 3.572 2.894 6.478 6.452 6.478h30.967c.442 0 .874-.045 1.29-.13v.13h37.42c2.134 0 3.871-1.744 3.871-3.887v-5.182a3.874 3.874 0 00-1.29-2.876V12.015A3.874 3.874 0 0080 9.139zm-2.58-5.183V9.14c0 .713-.58 1.295-1.291 1.295h-5.161V2.661h5.161c.711 0 1.29.581 1.29 1.295zM47.741 2.661v7.773h5.161V2.661h-5.161zm7.742 0h5.161v7.773h-5.161V2.661zm12.903 0h-5.161v7.773h5.161V2.661zM38.71 3.956c0-.714.579-1.295 1.29-1.295h5.161v7.773H40c-.711 0-1.29-.582-1.29-1.295V3.956zM2.58 73.918c0 2.143 1.737 3.887 3.872 3.887h30.967c2.135 0 3.871-1.744 3.871-3.887V44.119h-2.58v-2.59h2.58V37.64c0-.713-.579-1.295-1.29-1.295H3.871c-.711 0-1.29.582-1.29 1.296v3.886h33.548v2.591H2.581v29.799zm74.84 2.591c0 .715-.58 1.296-1.291 1.296H42.547c.82-1.086 1.324-2.423 1.324-3.887v-3.887h32.258c.711 0 1.29.58 1.29 1.296v5.182zM43.87 67.44h32.258V13.025H40v20.73c2.134 0 3.871 1.744 3.871 3.886V67.44z" fill="#151D28"/>
</svg>
