<svg width="80" height="81" fill="none" xmlns="http://www.w3.org/2000/svg">
    <path fill-rule="evenodd" clip-rule="evenodd" d="M56.343 9.139C52.908 3.699 46.875.069 40 .069S27.09 3.7 23.657 9.14H0v71.256h80V9.14H56.343zM40 2.66c9.249 0 16.774 7.556 16.774 16.842v2.591H77.42v20.73H47.283a11.655 11.655 0 004.33-9.07v-11.66H28.387v2.592c-4.27 0-7.742 3.486-7.742 7.773 0 4.287 3.472 7.774 7.742 7.774h1.964c.654.98 1.454 1.851 2.366 2.59H2.581V22.095h20.645v-2.59C23.226 10.215 30.75 2.66 40 2.66zM25.806 45.415v5.182h28.388v-5.182H25.806zm5.162-11.66v-9.07h18.064v9.07c0 5-4.051 9.069-9.032 9.069-4.98 0-9.032-4.068-9.032-9.07zm-2.58 3.886h.676a11.62 11.62 0 01-.677-3.886v-6.478c-2.846 0-5.161 2.324-5.161 5.182 0 2.858 2.315 5.182 5.161 5.182zM2.58 16.913h12.903v-2.591H2.58V11.73h19.691a19.272 19.272 0 00-.907 2.59h-3.3v2.592h2.772c-.113.85-.192 1.71-.192 2.591H2.581v-2.59zm0 28.503v32.39h20.645v-32.39H2.58zm23.226 7.774H38.71v24.616H25.806V53.189zm15.483 0v24.616h12.904V53.189H41.29zm36.13 24.616H56.773v-32.39H77.42v32.39zM59.162 16.912c.113.85.192 1.71.192 2.591h18.064v-2.59H64.516V14.32H77.42V11.73H57.728c.364.834.66 1.7.907 2.59h3.3v2.592h-2.772z" fill="#232C38"/>
</svg>
