<svg width="19" height="15" viewBox="0 0 19 15" fill="none" xmlns="http://www.w3.org/2000/svg">
<path d="M1.45053 1.66388H14.8221C14.8623 1.66388 14.8991 1.67932 14.9368 1.69091L15.2655 0.589594C15.37 0.239363 15.6868 0 16.0458 0H17.6775C17.9028 0 18.0854 0.186249 18.0854 0.41598V1.2479C18.0854 1.47763 17.9028 1.66388 17.6775 1.66388H16.6501L14.1014 10.2046L15.0533 11.337C15.4295 11.7846 15.5989 12.4013 15.4258 12.9637C15.2043 13.683 14.5817 14.1429 13.864 14.1429H2.17635C1.95106 14.1429 1.76841 13.9566 1.76841 13.7269V12.895C1.76841 12.6652 1.95106 12.479 2.17635 12.479H13.864L12.5709 10.9406C12.5384 10.9019 12.5145 10.8583 12.4898 10.8151H4.58486C3.95258 10.8151 3.37722 10.4428 3.10799 9.8594L0.261404 3.69125C0.179756 3.51374 0.136732 3.31673 0.136732 3.12131V3.0035C0.136732 2.26369 0.724947 1.66388 1.45053 1.66388Z" fill="#F9FBFF"/>
</svg>
